<svg version="1" xmlns="http://www.w3.org/2000/svg" width="1265.333" height="1265.333" viewBox="0 0 949.000000 949.000000"><path d="M449 6.1c-64.9 3.8-128.9 20.8-185.2 49-31.3 15.7-64 37.1-90.8 59.4-13.3 11.1-40.2 37.6-53.3 52.5C50.4 245.9 9.4 348.9 5.1 455.6.8 562.1 33.3 666.8 97.5 753.5c17.7 23.9 44 52.3 68.5 73.8 62.8 55.2 144.9 94.2 227.7 108.2l16.2 2.8 7.8-3.7c4.3-2.1 8.6-4.4 9.5-5.3.9-.8 2.1-1.2 2.6-.9 1.2.7 26.9-6.7 33.7-9.7 4.8-2.3 5.4-2.9 6.1-6.4 1.4-8.1 6.7-13.3 13.7-13.3 7.1 0 10.7 5.8 10.7 17.3 0 7.3 2.7 12.8 8 16.3 4.9 3.3 7.6 2.5 11.4-3.3 5.3-8.3 10.2-11.8 25.4-17.7 7.9-3.1 15.4-5.6 16.6-5.6 8.8 0 21 9.4 24.9 19.1l2.3 5.7 11.5-3c56.3-14.5 114.4-42.6 161.9-78.2 27.1-20.2 58-49.5 78.8-74.6 63.8-76.8 100.7-168 108.3-268 1.5-19.4.6-65.5-1.5-83.6-5.2-43.7-14.5-81.8-29.3-119.4-7.5-19.2-24.3-53.7-33.8-69.5-48.6-80.6-116.7-142.9-200-183-24.4-11.7-22.8-11.2-27.4-8.2-6.9 4.6-13 5.7-30.7 5.7-18.5 0-18.4-.1-18.4 8.3 0 5.8-3.2 9-9.1 9-5.1 0-7.4-2.3-11.4-11.3-3.6-7.9-7.4-13.9-9.8-15.4-1.5-.9-2.2-.7-3.7 1.2-1.1 1.3-2.4 4.1-3 6.1-1.7 6.4-3.8 7.4-22.4 10.6-2.8.5-5.4 2.1-9.5 6-3.1 3-7 5.9-8.6 6.5-1.6.6-8.4 1.5-15.2 2-6.7.5-12.7 1.1-13.3 1.5-1.8 1.1-12.1-2.5-14.7-5.2-2.5-2.4-2.6-2.7-1.7-10.6.4-4.5.8-11.6.9-15.7 0-7-.4-8.2-4.9-17.8-4.7-9.8-4.9-10.4-3.7-13.8.7-2 1-3.8.7-4.1-1-1-9.1-1.1-23.6-.2zM573.1 71c8.2 2.3 10 8.2 5.9 20.4-2.7 8.3-2.3 13.3 1.7 19 3.9 5.6 7.4 5.9 13.3 1.1 5.5-4.3 9.4-5.5 18.2-5.5 3.7 0 11.5-.7 17.4-1.6 14.1-2.1 16.1-1.6 23.2 5.4 7 6.9 9.5 11.7 10 19.9.6 8.2-1 12.3-6.7 17.6-8.9 8.3-18.1 9.4-42 4.7-12-2.3-13.6-1.8-14.7 4.9-.8 5.4-2.4 7.9-5.6 9-3.8 1.3-8.2.4-10.6-2.3-1-1.1-3.1-6.2-4.7-11.1-1.5-5-3.6-10.7-4.7-12.8-1.6-3.2-2.3-3.8-4.6-3.5-2.1.2-3.3 1.5-5.5 5.5-1.6 2.9-3.8 5.8-5 6.5-1.2.6-7.5 1.4-13.9 1.8l-11.7.6-5.3 4.4-5.3 4.5h-14.7c-8.2 0-14.8.4-14.8.9s-.6.4-1.2-.2c-.7-.5-2.9-1.3-4.8-1.7-5-1.1-10.8-4.2-12-6.4-1.6-3.1-1.1-9 1.5-18 3.3-11.2 3.2-15.6-.7-27.9-3.9-12.5-3.5-14.5 3.6-18.3 9.7-5.3 15.1-5.7 50.7-4.4 20.5.8 21.7.7 23.3-1.1.9-1 3.2-3.8 5.2-6.2 3-3.4 6.3-5.4 10.4-6.1.3-.1 2.1.4 4.1.9zm5 96.6c4.3 4.1 4.4 7 .9 17.3-3.5 10.1-3.4 12.8.6 19.7 3.6 6.4 6.3 6.7 13.9 1.3 4.7-3.3 11.7-5.1 16.9-4.2 2.1.3 9.7 0 17-.7 15.4-1.5 17.7-.9 24.5 6.5 8.1 8.8 11.1 20 7.7 28.9-2 5.3-8.8 11.8-14.2 13.7-6.2 2.1-18.5 1.5-30.7-1.4-6-1.5-11.9-2.7-13.3-2.7-2.8 0-5 3-5.9 8.3-.9 4.5-3.7 6.7-8.7 6.7-6.2 0-8.5-3-11.4-14.4-4.7-18.6-8.4-21.7-14.1-11.7-1.5 2.5-3.4 5-4.3 5.6-.8.5-7.2 1.2-14.2 1.5-12.3.5-12.7.6-16.5 3.6-2.1 1.7-4.8 3.6-6 4.2-4.4 2.4-33 .6-40.6-2.6-5.1-2.1-8.7-6.5-8.7-10.6 0-1.8 1.4-7.2 3-12.1 3.5-10.4 3.7-14.2 1-25-2-8.1-2.5-15-1.4-18 1.4-3.6 15.7-8.5 25.1-8.5 3.2 0 15.5.9 27.3 2.1 20.7 2.2 29 2.1 29-.2 0-2.4 4.5-7.2 8.4-9 5.4-2.6 10.9-1.9 14.7 1.7zm-14.9 94.3c3.9 4.3 3.7 8.8-.7 18-4.2 8.6-4.4 13.6-1.1 20.1 3 5.9 6.1 6.4 14.3 2 5.6-3.1 6-3.2 14.3-2.5 4.7.4 14.7 1 22.2 1.4l13.7.6 4.7 4.5c12.5 12.1 13.9 29.6 3.3 39.7-8.8 8.3-19.4 8.8-40.7 1.9-8.1-2.7-15.1-4.5-16.2-4.1-1.1.3-2.6 2.5-3.6 5.3-2.5 6.8-4.4 8.4-9.5 8.4-6.9-.1-8.7-2.7-11-16.1-1.8-10.6-3.7-16.2-5.9-17.6-1.6-1-4.8 1.3-8 5.9-3.8 5.6-6.1 6.1-19.3 4.5-10.9-1.3-13.1-.8-19.6 4.2-3.1 2.4-13.1 2.5-23.3.3-13.2-2.9-14.8-3.2-14.8-2.2 0 .5-.7.2-1.6-.7-.9-.8-3.3-2.5-5.5-3.5-2.1-1.1-4.3-3-5-4.1-1.8-3.4-.5-10.8 3.5-19.7 4.7-10.4 5.4-16.3 3.1-28.7-2.5-14.2-1-16.3 14.2-18.8 8.9-1.5 15.7-.8 40.3 4.1 8 1.7 17.1 3.3 20.3 3.7l5.9.7 3.6-4.2c4.6-5.4 8.4-7.1 14.6-6.6 4.1.3 5.5.9 7.8 3.5zm-34.7 86.7c3 1.9 4.9 5.9 4.8 9.7-.1 1.8-2 7-4.3 11.7-4.6 9.5-4.8 13.5-1 21 2.8 5.6 5.4 5.9 13.5 2 6.1-3 7.1-3.2 13.8-2.6 4 .3 13.8 1 21.9 1.5 17.5 1.1 19.3 1.8 25.4 10.9 4.9 7.1 6.4 11.5 6.4 19 0 14.1-11.1 24.2-26.6 24.2-5.5 0-14.9-2.5-30.1-8.1-9-3.3-9.2-3.3-11.2-1.5-1.2 1.1-2.6 3.6-3.1 5.6-1.3 4.9-4 7.2-8.7 7.2-3 0-4.4-.7-6.8-3.4-2.8-3-3.4-4.7-4.8-14.1-2.1-13.7-3.7-17.7-7.2-17.7-1.9 0-3.4 1.2-6.1 5-2 2.9-4.7 5.3-6.1 5.6-1.4.4-5.9.3-10.1-.2-14.2-1.6-18.2-1.2-23.1 2.1-4 2.7-5.3 3-11.5 2.9-4.2 0-11.4-1.2-17.7-2.8-5.8-1.5-11-2.6-11.5-2.4-.5.1-2.1-.5-3.6-1.5-1.6-.9-3.9-2.4-5.3-3.2-3.3-2-5.8-7.1-5.1-10.5.3-1.5 2.4-6.7 4.7-11.6 5-10.5 5.7-15.4 3.9-29.9-1-9-1-10.6.4-13.4 3-5.6 6.3-6.6 23.1-6.6 14.2 0 15.9.2 32 4.2 9.4 2.3 19.8 4.5 23.3 4.9l6.2.7 4-4.6c5.7-6.5 14.3-8.2 20.5-4.1zm-105.7 88.5c2.6.7 13 3.5 23.2 6.4 10.2 2.9 20.7 5.6 23.3 6 4.8.6 5 .6 8.3-3.4 6.2-7.2 16.8-8.2 22.8-2.2 2.6 2.6 3.1 3.9 3.1 7.9 0 3.8-.9 6.2-4.5 12.2-3.9 6.5-4.5 8.2-4.4 13 0 5.3 2.3 11.6 4.8 13.2 2 1.4 5.3.8 10.8-1.7 6.1-2.9 11.8-3.2 21-1.1 3.5.8 11.7 2 18.3 2.6 13.5 1.2 14.8 1.8 20.7 9.6 9.8 12.8 9.4 29.3-1 38.6-4.2 3.8-12 6.8-17.8 6.8-5.8 0-13.6-2.1-24.4-6.7-17-7.2-17.5-7.4-19.9-5.7-1.1.8-2.6 3.2-3.2 5.4-1.6 5.3-4 7.3-9 7.3s-9.1-2.9-10.1-6.9c-.3-1.6-1.1-8-1.6-14.2-1.5-17.2-4.7-20.1-12.4-11.2-2.6 3-5.4 5.2-7.2 5.6-1.6.3-7.6-.4-14.1-1.7l-11.2-2.3-6.6 3.2c-8.7 4.2-13.5 4.2-27.6-.3-6-1.9-12-3.6-13.3-3.7-3.3-.5-11.4-5.4-13.3-8-2.9-4.2-1.9-9.2 4.2-20.9 6.2-11.9 6-11.2 5.3-31.2-.4-11.2.9-14.2 7.1-16.4 4.4-1.5 22.6-1.6 28.7-.2zm36.3 88.9c1.9.5 4.8 2.3 6.4 4 4 4.2 3.8 9.3-.8 19.6-2 4.5-3.7 9.7-3.7 11.5 0 3.7 3.1 11.3 5.7 14.1 2.4 2.6 4.8 2.2 12.2-1.9 5.5-3.1 7.5-3.7 12.1-3.6 3 .1 12.9.2 22 .3 9.1 0 18.1.5 20.1 1.1 4.7 1.2 12.2 9.2 15.5 16.4 5.2 11.2 4.2 22.1-2.7 29.9-6.2 7-11.5 9.1-22.9 9-8.2 0-11.3-.6-23-4.2-7.4-2.3-14.7-4.2-16.2-4.2-2.9 0-4.8 2.6-6.2 8.5-.9 3.7-2.3 5.5-5.4 6.6-3.9 1.5-6.9 0-11-5.4-3.2-4.3-4.2-6.8-5.6-14.2-2.1-10.5-4.8-16.5-7.5-16.5-1.1 0-3.2 1.6-4.8 3.6-1.5 1.9-4 4.9-5.6 6.6l-2.8 3-14.2-.7-14.2-.7-5.5 3.8c-7.5 5.2-13.4 5.5-32.3 1.9-27.6-5.2-31.1-10.1-22.2-31 4.7-10.8 5.5-19.3 3.1-29.8-3.3-13.9-1.9-17.9 7.4-21.3 5.2-1.8 23.2-3.2 28.1-2.2 9.5 2 39.3 6.9 45.6 7.4 7.1.7 7.1.7 8.6-2.2 2.1-4.1 5.9-7.4 10.4-8.9 4.7-1.7 4.9-1.7 9.4-.5zm-20.3 96.5c3.7 4.1 4 6.8 1.7 18.8-1.7 9.1-.9 12.9 4.4 19.6 4.7 5.9 8.2 5.7 15.4-.9 6.4-5.8 8.4-6.7 18.6-8.1 4.2-.6 12.7-2.4 19-4 13.7-3.5 15.2-3.5 21.6-.5 10.8 5.1 17.9 14.5 19.1 25.3 1.3 10.9-5.4 21.6-16.8 26.9l-6.3 2.9h-41.9l-1.3 2.5c-.7 1.4-1.3 4.6-1.3 7.2 0 3.9-.5 5-2.7 6.8-2.3 1.8-3.7 2.1-7.6 1.7-6.6-.6-9.2-3.4-11.7-12.1-2.9-10.1-6.5-17.3-9-18.1-2.8-.9-6.4 2.4-9.6 8.7-3 5.9-5.7 7.3-16.5 8.8-13.4 1.8-15.2 2.5-20.9 8.4-6.1 6.3-8.4 7.1-25.5 8.2-20.4 1.4-26.8.7-31.4-3.2-4.1-3.4-4.6-7.4-2.6-18.8 1-5.3 1.4-11.1 1.1-12.9-.4-1.9-2.7-7.6-5.1-12.6-8.8-18-5.1-27.3 13.5-34.1 6.2-2.3 17.3-3.7 40.5-5 9.9-.6 20.4-1.6 23.3-2.3 5-1.1 5.5-1.5 6.7-5.1 4.1-11.8 17.7-16.2 25.3-8.1zm-1.3 90.9c5.6 2.4 6.7 5.1 6.6 16.6-.1 7.4.3 11.1 1.5 13.6 2.1 4.3 8.8 10.4 11.6 10.4 1.3 0 4.5-2.5 8.7-6.9 6-6.3 7.2-7.1 14.1-9.1 4.1-1.2 12.9-4.5 19.4-7.2 13.2-5.6 15.9-5.8 24-1.9 21.6 10.5 25.1 35.5 6.7 47.2-6.5 4.2-12.7 5.7-29.5 7.3-8.1.8-15.4 2-16.2 2.7-1.1.9-1.4 2.9-1.2 7.6.2 5.6-.1 6.6-2.3 8.9-2.9 2.9-8.2 4-12.1 2.5-1.7-.6-3.6-2.7-4.9-5.3-3.7-7.3-11.8-18.4-14.5-19.9-2.4-1.2-2.8-1.2-4.5.9-1 1.3-2.1 4.3-2.5 6.8-1 7-3.5 9.1-14.8 12.4-11.2 3.3-13.7 4.8-18.2 11.1-1.7 2.4-4.8 5.4-7 6.6-5.5 3.1-28.2 7.7-36.7 7.6-12.1-.3-14-2.9-14.2-19.3-.1-12.6-.3-13.4-7-22-5.8-7.6-7.5-11.2-7.5-16.2.1-6.8 3-11.9 9.1-16 10-6.6 16.1-8.7 37.4-12.8 25.4-5 33.5-7.8 33.5-11.8 0-3.7 2.9-9.1 6.4-11.7 4.9-3.6 8.9-4.2 14.1-2.1zm20.9 93.6c2.7 2.6 3 3.6 3.7 12.9.4 5.9 1.5 11.5 2.5 13.7 2 4.2 8.6 9.4 12.1 9.4 2.2 0 7.3-4.3 7.3-6.1 0-.5 1.6-2.7 3.6-4.8 2.5-2.8 5.6-4.7 10.7-6.7 4-1.5 11.9-5.2 17.6-8.2 12-6.4 15.5-6.8 24.1-2.9 12 5.4 19 15 19 26.1-.1 8-2.4 13-8.9 18.8-6.3 5.7-10.7 7.3-28.4 10.3-7.7 1.3-14.6 3-15.4 3.7-1.2 1-1.4 2.5-.9 7.5.8 7.6-.2 9.9-5.1 11.9-6.6 2.8-10.8.2-17.2-10.6-4.4-7.3-9.9-13-12.8-13-2.8 0-4.2 2.6-5 9.3-.3 3.1-1.4 6.1-2.6 7.4-1 1.2-6.2 3.8-11.3 5.8-11.1 4.3-12.7 5.5-16.2 12-3.3 6.1-7 8.7-17 11.8-30.6 9.6-39.2 7.3-39.2-10.5-.1-13.9-3.3-22.6-13.2-35.7-5.4-7.2-5.8-9.3-2.5-14.2 5.7-8.5 17.5-14.5 43.7-22 8-2.3 17.4-5.4 20.9-6.9 6.8-2.8 6.5-2.3 8.5-11.2.4-1.5 2-4.3 3.7-6.3 5.4-6.1 13-6.7 18.3-1.5z"/></svg>